<svg xmlns="http://www.w3.org/2000/svg" viewBox="0 0 1600 900" width="1600" height="900" font-family="DejaVu Sans, Arial, sans-serif">
<defs>
<marker id="aK" viewBox="0 0 10 10" refX="9" refY="5" markerWidth="5" markerHeight="5" orient="auto-start-reverse"><path d="M0,0 L10,5 L0,10 z" fill="#1F2933"/></marker>
<marker id="aG" viewBox="0 0 10 10" refX="9" refY="5" markerWidth="5" markerHeight="5" orient="auto-start-reverse"><path d="M0,0 L10,5 L0,10 z" fill="#2F9E44"/></marker>
<marker id="aO" viewBox="0 0 10 10" refX="9" refY="5" markerWidth="5" markerHeight="5" orient="auto-start-reverse"><path d="M0,0 L10,5 L0,10 z" fill="#E8590C"/></marker>
<marker id="aT" viewBox="0 0 10 10" refX="9" refY="5" markerWidth="5" markerHeight="5" orient="auto-start-reverse"><path d="M0,0 L10,5 L0,10 z" fill="#0C8599"/></marker>
<marker id="aA" viewBox="0 0 10 10" refX="9" refY="5" markerWidth="5" markerHeight="5" orient="auto-start-reverse"><path d="M0,0 L10,5 L0,10 z" fill="#B7791F"/></marker>
<marker id="aR" viewBox="0 0 10 10" refX="9" refY="5" markerWidth="5" markerHeight="5" orient="auto-start-reverse"><path d="M0,0 L10,5 L0,10 z" fill="#C92A2A"/></marker>
<marker id="aD" viewBox="0 0 10 10" refX="9" refY="5" markerWidth="5" markerHeight="5" orient="auto-start-reverse"><path d="M0,0 L10,5 L0,10 z" fill="#2496ED"/></marker>
<marker id="aB" viewBox="0 0 10 10" refX="9" refY="5" markerWidth="5" markerHeight="5" orient="auto-start-reverse"><path d="M0,0 L10,5 L0,10 z" fill="#1C64C8"/></marker>
<marker id="aY" viewBox="0 0 10 10" refX="9" refY="5" markerWidth="5" markerHeight="5" orient="auto-start-reverse"><path d="M0,0 L10,5 L0,10 z" fill="#52606D"/></marker>
</defs>
<rect width="1600" height="900" fill="#F6F3EC"/>
<rect x="0" y="0" width="1600" height="10" fill="#2496ED"/>
<text x="70" y="100" font-size="52" fill="#1F2933" font-weight="bold">Funziona?</text>
<text x="70" y="152" font-size="27" fill="#52606D">Controlliamo dal server, poi dal browser</text>
<rect x="70" y="195" width="1460" height="365" rx="14" fill="#1F2933"/>
<text xml:space="preserve" x="100" y="247" font-size="28" fill="#FFFFFF" font-family="DejaVu Sans Mono, monospace">$ docker ps</text>
<text xml:space="preserve" x="100" y="293" font-size="28" fill="#9FB3C8" font-family="DejaVu Sans Mono, monospace">NAMES    STATUS         PORTS</text>
<text xml:space="preserve" x="100" y="339" font-size="28" fill="#9FB3C8" font-family="DejaVu Sans Mono, monospace">web-07   Up 5 seconds   0.0.0.0:8007-&gt;80/tcp</text>
<text xml:space="preserve" x="100" y="432" font-size="28" fill="#FFFFFF" font-family="DejaVu Sans Mono, monospace">$ curl -I http://localhost:8007</text>
<text xml:space="preserve" x="100" y="478" font-size="28" fill="#7BC47F" font-family="DejaVu Sans Mono, monospace">HTTP/1.1 200 OK</text>
<text xml:space="preserve" x="100" y="524" font-size="28" fill="#9FB3C8" font-family="DejaVu Sans Mono, monospace">Server: nginx</text>
<text xml:space="preserve" x="800" y="720" font-size="34" fill="#1F2933" font-weight="bold" text-anchor="middle" font-family="DejaVu Sans Mono, monospace">Poi dal browser: http://IP-del-VPS:8007</text>
</svg>
