<svg xmlns="http://www.w3.org/2000/svg" viewBox="0 0 1600 900" width="1600" height="900" font-family="DejaVu Sans, Arial, sans-serif">
<defs>
<marker id="aK" viewBox="0 0 10 10" refX="9" refY="5" markerWidth="5" markerHeight="5" orient="auto-start-reverse"><path d="M0,0 L10,5 L0,10 z" fill="#1F2933"/></marker>
<marker id="aG" viewBox="0 0 10 10" refX="9" refY="5" markerWidth="5" markerHeight="5" orient="auto-start-reverse"><path d="M0,0 L10,5 L0,10 z" fill="#2F9E44"/></marker>
<marker id="aO" viewBox="0 0 10 10" refX="9" refY="5" markerWidth="5" markerHeight="5" orient="auto-start-reverse"><path d="M0,0 L10,5 L0,10 z" fill="#E8590C"/></marker>
<marker id="aT" viewBox="0 0 10 10" refX="9" refY="5" markerWidth="5" markerHeight="5" orient="auto-start-reverse"><path d="M0,0 L10,5 L0,10 z" fill="#0C8599"/></marker>
<marker id="aA" viewBox="0 0 10 10" refX="9" refY="5" markerWidth="5" markerHeight="5" orient="auto-start-reverse"><path d="M0,0 L10,5 L0,10 z" fill="#B7791F"/></marker>
<marker id="aR" viewBox="0 0 10 10" refX="9" refY="5" markerWidth="5" markerHeight="5" orient="auto-start-reverse"><path d="M0,0 L10,5 L0,10 z" fill="#C92A2A"/></marker>
<marker id="aD" viewBox="0 0 10 10" refX="9" refY="5" markerWidth="5" markerHeight="5" orient="auto-start-reverse"><path d="M0,0 L10,5 L0,10 z" fill="#2496ED"/></marker>
<marker id="aB" viewBox="0 0 10 10" refX="9" refY="5" markerWidth="5" markerHeight="5" orient="auto-start-reverse"><path d="M0,0 L10,5 L0,10 z" fill="#1C64C8"/></marker>
<marker id="aY" viewBox="0 0 10 10" refX="9" refY="5" markerWidth="5" markerHeight="5" orient="auto-start-reverse"><path d="M0,0 L10,5 L0,10 z" fill="#52606D"/></marker>
</defs>
<rect width="1600" height="900" fill="#F6F3EC"/>
<rect x="0" y="0" width="1600" height="10" fill="#2496ED"/>
<text x="70" y="100" font-size="52" fill="#1F2933" font-weight="bold">Volumi: i dati stanno fuori</text>
<text x="70" y="152" font-size="27" fill="#52606D">Lo stesso file, non una copia: il container si butta, i dati restano</text>
<rect x="70" y="185" width="1460" height="134" rx="14" fill="#1F2933"/>
<text xml:space="preserve" x="100" y="237" font-size="28" fill="#FFFFFF" font-family="DejaVu Sans Mono, monospace">$ mkdir -p ~/web/sito</text>
<text xml:space="preserve" x="100" y="283" font-size="28" fill="#FFFFFF" font-family="DejaVu Sans Mono, monospace">$ echo '&lt;h1&gt;ciao&lt;/h1&gt;' &gt; ~/web/sito/index.html</text>
<rect x="70" y="354" width="600" height="240" rx="16" fill="#FFFFFF" stroke="#3E4C59" stroke-width="3"/>
<text x="370" y="399" font-size="30" fill="#3E4C59" font-weight="bold" text-anchor="middle">server</text>
<rect x="110" y="424" width="520" height="140" rx="12" fill="#FFF8E6" stroke="#B7791F" stroke-width="3"/>
<text xml:space="preserve" x="140" y="479" font-size="32" fill="#B7791F" font-weight="bold" font-family="DejaVu Sans Mono, monospace">~/web/sito/</text>
<text xml:space="preserve" x="140" y="534" font-size="28" fill="#1F2933" font-family="DejaVu Sans Mono, monospace">index.html</text>
<path d="M680,494 L900,494" stroke="#B7791F" stroke-width="7" fill="none" marker-end="url(#aA)"/>
<text xml:space="preserve" x="790" y="469" font-size="30" fill="#B7791F" font-weight="bold" text-anchor="middle" font-family="DejaVu Sans Mono, monospace">-v</text>
<text x="790" y="544" font-size="22" fill="#3E4C59" text-anchor="middle">ro = sola</text>
<text x="790" y="572" font-size="22" fill="#3E4C59" text-anchor="middle">lettura</text>
<rect x="920" y="354" width="610" height="240" rx="16" fill="#E3F6E8" stroke="#2F9E44" stroke-width="3" stroke-dasharray="12 7"/>
<text x="1225" y="399" font-size="30" fill="#2F9E44" font-weight="bold" text-anchor="middle">container web-07</text>
<rect x="950" y="424" width="550" height="140" rx="12" fill="#FFF8E6" stroke="#B7791F" stroke-width="3"/>
<text xml:space="preserve" x="975" y="479" font-size="26" fill="#B7791F" font-weight="bold" font-family="DejaVu Sans Mono, monospace">/usr/share/nginx/html/</text>
<text xml:space="preserve" x="975" y="534" font-size="28" fill="#1F2933" font-family="DejaVu Sans Mono, monospace">index.html</text>
<rect x="70" y="634" width="1460" height="171" rx="14" fill="#1F2933"/>
<text xml:space="preserve" x="100" y="684" font-size="26" fill="#9FB3C8" font-family="DejaVu Sans Mono, monospace">$ docker rm -f web-07</text>
<text xml:space="preserve" x="100" y="727" font-size="26" fill="#FFFFFF" font-family="DejaVu Sans Mono, monospace">$ docker run -d --name web-07 -p 8007:80 \</text>
<text xml:space="preserve" x="100" y="770" font-size="26" fill="#F5C26B" font-family="DejaVu Sans Mono, monospace">    -v ~/web/sito:/usr/share/nginx/html:ro nginx:alpine</text>
<text x="800" y="855" font-size="28" fill="#1F2933" font-weight="bold" text-anchor="middle">Ricarica http://IP-del-VPS:8007 e compare: ciao</text>
</svg>
